<svg id="Layer_1" xmlns="http://www.w3.org/2000/svg" viewBox="0 0 121.5 32.9"><style>.st0{fill:#ff672f}</style><g id="XMLID_2680_"><g id="XMLID_2718_"><path id="XMLID_2721_" class="st0" d="M93 14.3l.1.1 5.2-5.7h6.4c-2.4 2.5-4.8 4.5-7.2 7l7.7 8.6h-6.5c-2-2.1-3.6-4.4-5.6-6.5l-.1.1v6.3h-4.9V0H93v14.3"/><path id="XMLID_2720_" class="st0" d="M70.4 8.6c-.2 1.3-.5 2.6-.7 4-1.4-.4-3.6-.7-4.8.6-1 1.1-1.2 2.6-1.2 4.1l-.1 7.2h-4.9V8.7h5c.1.4-.1 1.1.1 1.5C65.2 8 68.1 8 70.4 8.6"/></g><path id="XMLID_2708_" class="st0" d="M85.4 12.1c.8 1.5 1 3.3 1 5.1l-.3.1c-3.5-.1-7.6 0-11.2 0l-.1.1c.1 1.5.6 3 1.9 3.8 1.3.6 3.2.5 4.2-.7l.9-1.1 4.5.7c-1.1 3.2-4.5 4.6-7.6 4.8-3.2.2-6.7-1-8.2-4.2-1.3-3.1-1.2-7.7 1.4-10.1 2.5-2.6 6.8-3 10.1-1.7 1.4.5 2.8 1.8 3.4 3.2m-5.1-.2c-.8-.6-2-.6-3-.3-1.2.4-2.2 1.7-2.4 2.9h6.8l-.3-1c-.2-.6-.5-1.3-1.1-1.6"/><path id="XMLID_2701_" class="st0" d="M120 11.8c1.8 2.4 2 6.5.4 9-2.2 3.5-6.2 4.4-10.2 3.8-2.8-.4-5.9-2.5-6.6-5.4-.7-3.1-.2-6.5 2.1-8.6 3-2.6 8.1-3.2 11.6-1.3 1 .6 1.9 1.4 2.7 2.5m-6.5.5c-1.9-.4-3.6.3-4.7 1.8-1 1.4-.8 3.1-.1 4.5.8 1.5 2.4 2.3 4 2.2 1.2-.1 2.3-.9 3-1.9.8-1.3 1-3.3.2-4.7-.5-.8-1.4-1.6-2.4-1.9"/><path id="XMLID_2693_" class="st0" d="M52.1 10.5l.1-1.8h5l-.1 15.8c-.1 1.3-.3 2.4-.7 3.6-.6 2-2.4 3.8-4.4 4.3-3.7 1-7.9.4-10.6-2.2-1.1-1-1.6-2.4-1.8-3.9l.1-.1h5.4c.1 1 .6 2.2 1.7 2.5 1.4.3 2.9.4 4.1-.4 1.5-1.4 1.2-3.6 1.1-5.5-2 1.8-5 2.3-7.5 1.5-2.8-1-5-3.7-5.3-6.7-.2-3 .5-5.9 2.9-7.9 2.1-1.4 5-2.1 7.6-1.2.8.6 1.7 1.3 2.4 2m-3.7 1.7c-1.4.1-2.9.6-3.6 1.9-.9 1.5-1 3.4-.1 4.9.7 1.1 1.7 1.8 2.9 1.9 1.4.1 3.1-.2 4.1-1.5.9-1.5 1.2-3.4.3-5.1-.7-1.4-2.1-2-3.6-2.1"/><path id="XMLID_2686_" class="st0" d="M32.5 10.5c.1-.5 0-1.3.1-1.9h4.9v14.6c-.1 3.2-.6 6.6-3.6 8.4-3.3 1.8-8.1 1.5-11.2-.6a6.49 6.49 0 0 1-2.8-4.7l5.4-.1c.2.4.2.9.4 1.4.9 1.5 2.7 1.4 4.3 1.3 1-.2 2-1.2 2.2-2.2.3-1.2.1-2.5.2-3.7l-.1-.2c-2.1 2-5.4 2.5-8.1 1.3-2.5-1.1-4.4-3.7-4.6-6.4-.2-3.6 1-7.3 4.5-8.8 2.6-1 6.4-.9 8.4 1.6m-1.6 2.2c-1.6-.8-3.7-.6-5.1.5-1.4 1.4-1.7 3.5-1 5.3.4 1.1 1.5 1.9 2.6 2.1 1.6.3 3.7.1 4.7-1.5.9-1.3 1-3.4.3-4.9-.2-.6-.8-1-1.5-1.5"/><path id="XMLID_2682_" class="st0" d="M12.8 10.1c.1-.4 0-.9.1-1.3 1.6-.1 3.3 0 5 0v15.7h-4.8c-.1-.7.1-1.4-.1-2-1.2 1.9-3.5 2.2-5.6 2.3-2.7 0-5.5-1.7-6.6-4.4-1.2-2.9-1.1-6.9 1.1-9.3 2.5-2.9 6.5-3.3 9.7-1.9.4.2.8.6 1.2.9m-3.9 2.1c-1.4.1-2.7.8-3.3 2-.8 1.3-.8 3.2-.2 4.5.5 1 1.5 1.8 2.6 2.1 1.9.4 3.8-.2 4.8-1.8.8-1.3.8-3.4.1-4.8-.8-1.4-2.4-2-4-2"/></g></svg>