<?xml version="1.0" encoding="UTF-8"?><svg id="ART" xmlns="http://www.w3.org/2000/svg" viewBox="0 0 625.57 216"><defs><style>.cls-1{fill:#fff;}.cls-2{fill:#8c8772;}.cls-3{fill:#838271;}.cls-4{fill:#ba0c2f;}</style></defs><g><path class="cls-4" d="M532.82,98.15c-10.97,0-17.71,10.93-17.71,21.89,0,1.72,.2,3.01,.42,4.25,16.66-3.2,24.79-12.08,24.79-19.13,0-4.44-2.8-7.01-7.51-7.01Z"/><path class="cls-4" d="M384.66,119.57c.71-10.06,2.65-20.16,4.5-28.16,5.66-24.56,15.24-43.27,28.76-43.27,9.41,0,12.9,6.53,12.98,14.26,.21,20.36-16.34,45.25-36.02,60.9-.26,9.78,2.88,14.3,8.62,14.3,10.31,0,20.6-10.51,29.45-31.67,1.21-2.89,2.36-6.21,3.63-9.4,1.77-4.46,11.03-1.88,9.71,2.56-2.84,9.47-7.39,22.01-7.39,30.29,0,5.54,2.79,7.85,6.9,7.79,5.71-.08,10.39-4.18,13.74-8.17,0,0,2.35-11.78,3.04-15.03,9.66-45.87,20.81-65.82,35.44-65.82,8.74,0,13.17,5.37,13.17,14.04,0,15.91-10.96,34.19-32.04,59.44,6.57,2.3,13.81,4.02,23.04,4.02,.54,0,1.81,0,2.34-.01-.2-1.26-.39-3.57-.39-5.48,0-17.84,12.77-30.56,28.52-30.56,10.3,0,18.31,4.82,18.31,15.41,0,13.26-14.06,23.77-31.78,27.43,2.76,3.28,8.18,5.63,15.76,5.63,17.01,0,30.12-8.35,38.81-16.48V0h-216V133.93c9.97-3.71,19.2-8.78,26.91-14.37Zm63.54-49.32c4.05,0,7.19,3.29,7.01,7.34-.18,4.05-3.62,7.34-7.67,7.34s-7.19-3.29-7.01-7.34c.18-4.05,3.62-7.34,7.67-7.34Z"/><path class="cls-4" d="M497.88,56.72c-5.19,0-15.69,15.04-24.81,58.24,15.44-19.52,27.96-41.61,27.96-53.09,0-3.03-.88-5.16-3.15-5.16Z"/><path class="cls-4" d="M534.95,147.19c-14.82,0-23.17-5.75-27.64-13.04-1.45,.07-3.17,.11-4.73,.11-7.8,0-14.86-1.07-19.92-2.74,4.02,8.57,6.63,19.78,6.6,29.99-.05,19.42-7.04,32.18-20.37,32.18-9.5,0-14.91-6.94-15.1-21.24-.14-10.43,1.25-19.08,3.31-30.79-3.23,2.69-7.75,4.64-13.18,4.66-9.8,.04-15.26-6.2-15.65-14.79-7.63,10.28-16.8,15.23-26.37,15.23-10.43,0-16-6.7-17.1-16.71-7.48,4.75-16.61,9.71-27.04,13.43v72.53h216v-82.7c-11.51,9.15-24.83,13.89-38.8,13.89Z"/><path class="cls-4" d="M417.94,56.73c-5.62,0-15.54,16.8-21.71,53.71,17.59-17.17,24.76-39.38,24.76-48.21,0-4.09-1.08-5.51-3.05-5.51Z"/><path class="cls-4" d="M469.72,131.23c-2.29,10.63-5.43,29.35-5.43,41.24,0,6.91,1.5,11.29,5.51,11.29,6.96,0,9.03-12.25,9.03-21.31,0-11.75-3.04-24.12-7.72-32.67l-1.4,1.45Z"/></g><g><path class="cls-3" d="M11.42,121.61c0,2.69,.29,5.22,.87,7.59,.58,2.37,1.5,4.42,2.76,6.17,1.26,1.75,2.9,3.13,4.92,4.15,2.02,1.02,4.44,1.53,7.25,1.53,2.03,0,3.85-.3,5.47-.91,1.62-.61,2.99-1.3,4.12-2.09,1.35-.86,2.56-1.86,3.61-3,.61,.68,1.38,1.72,2.33,3.12,.95,1.4,1.42,2.69,1.42,3.88-.02,.38-.12,.77-.31,1.17-.35,.74-1.03,1.54-2.04,2.39-1.44,1.25-3.51,2.32-6.22,3.22-2.71,.9-5.99,1.35-9.86,1.35-2.5,0-5.24-.35-8.22-1.05-2.98-.7-5.76-2.08-8.35-4.15-2.59-2.06-4.76-4.94-6.52-8.63-1.76-3.69-2.64-8.57-2.64-14.63,0-5.62,.92-10.25,2.77-13.89,1.84-3.64,4.11-6.51,6.8-8.59,2.69-2.09,5.55-3.55,8.58-4.38,3.03-.83,5.7-1.25,8.01-1.25,2.82,0,5.37,.3,7.65,.89,2.28,.6,4.22,1.37,5.82,2.3,1.52,.88,2.67,1.8,3.44,2.74,.77,.95,1.15,1.9,1.15,2.87,0,1.85-1.39,4.55-3.13,6.86-1.24-1.42-3.07-2.85-5.48-4.27-2.41-1.42-5.09-2.14-8.05-2.14s-5.31,.47-7.34,1.42c-2.03,.95-3.71,2.27-5.02,3.98-1.32,1.71-2.28,3.71-2.88,6-.6,2.29-.9,4.75-.9,7.37Z"/><path class="cls-3" d="M99.46,147.19c-.84-1.13-1.42-2.77-1.74-4.94-.35-2.34-.52-5.6-.52-9.76v-18.84c0-3.31-.33-6.23-.99-8.77-.66-2.54-1.81-4.65-3.45-6.35-1.64-1.69-3.78-2.96-6.43-3.81-2.65-.85-5.96-1.27-9.94-1.27-2.34,0-4.73,.2-7.15,.59-2.42,.39-4.63,.94-6.62,1.64-1.99,.7-3.61,1.51-4.86,2.4-1.25,.9-1.87,1.86-1.87,2.87,0,.67,.24,1.7,.73,3.08,.49,1.38,1.14,2.64,1.94,3.78,2.35-1.66,4.78-2.9,7.29-3.86,2.51-.95,5.59-1.49,9.23-1.49,4.39,0,7.36,.84,8.91,2.51,1.55,1.68,2.32,4.12,2.32,7.32v1.8c-.68-.07-1.47-.11-2.38-.11h-2.38c-2.79,.08-5.87,.38-9.23,.91-3.36,.53-6.51,1.51-9.45,2.95-2.94,1.44-5.42,3.4-7.41,5.9-2,2.5-3,5.71-3,9.64h0c0,3.25,.55,5.92,1.64,8.01,1.09,2.09,2.48,3.75,4.16,4.99,1.68,1.24,3.55,2.09,5.62,2.55,2.07,.46,4.12,.7,6.15,.7,4.21,0,7.6-.65,10.18-1.96,2.58-1.31,4.8-2.89,6.64-4.76,.28,2.23,1.23,3.78,2.85,4.65,1.62,.87,3.52,1.31,5.7,1.31,.68,0,1.34-.03,1.97-.1,.63-.07,1.17-.15,1.61-.26,.39-.09,.67-.42,.67-.83,0-.19-.06-.36-.17-.51Zm-13.02-14.31c0,.88-.38,1.81-1.13,2.76-.75,.96-1.77,1.84-3.06,2.65-1.29,.81-2.77,1.49-4.45,2.04-1.68,.55-3.45,.83-5.31,.83-3.51,0-5.9-.85-7.19-2.54-1.29-1.69-1.93-3.65-1.93-5.86,0-2.36,.61-4.26,1.82-5.69,1.22-1.44,2.79-2.56,4.72-3.37,1.93-.81,4.08-1.36,6.44-1.66,2.36-.29,4.68-.44,6.97-.44h3.11v11.27Z"/><path class="cls-3" d="M157.72,148.5h-11.15v-30.66c0-2.11-.07-4.08-.22-5.9-.15-1.82-.55-3.38-1.19-4.68-.65-1.3-1.69-2.3-3.13-3.02-1.44-.72-3.45-1.08-6.03-1.08-3.63,0-6.75,.73-9.36,2.42-2.6,1.69-3.9,3.89-3.9,6.39v36.54h-11.18v-53.92c.16-.02,.36-.04,.58-.06,.19-.02,.42-.03,.68-.04,.26,0,.57-.01,.93-.01,1.98,0,3.76,.46,5.35,1.37,1.59,.91,2.56,2.48,2.9,4.7,1.74-1.84,4.11-3.47,7.1-4.91,2.99-1.44,6.53-2.16,10.62-2.16,5.16,0,9.11,1.15,11.84,3.46,2.73,2.3,4.52,5.19,5.35,8.64,.38,1.54,.61,3.25,.68,5.13,.07,1.88,.11,3.71,.11,5.47v32.34Z"/><path class="cls-3" d="M215.72,147.19c-.84-1.13-1.42-2.77-1.74-4.94-.35-2.34-.52-5.6-.52-9.76v-18.84c0-3.31-.33-6.23-.99-8.77-.66-2.54-1.81-4.65-3.45-6.35-1.64-1.69-3.78-2.96-6.43-3.81-2.65-.85-5.96-1.27-9.94-1.27-2.34,0-4.73,.2-7.15,.59-2.42,.39-4.63,.94-6.62,1.64-1.99,.7-3.61,1.51-4.86,2.4-1.25,.9-1.87,1.86-1.87,2.87,0,.67,.24,1.7,.73,3.08,.49,1.38,1.14,2.64,1.94,3.78,2.35-1.66,4.78-2.9,7.29-3.86,2.51-.95,5.59-1.49,9.23-1.49,4.39,0,7.36,.84,8.91,2.51,1.55,1.68,2.32,4.12,2.32,7.32v1.8c-.68-.07-1.47-.11-2.38-.11h-2.38c-2.79,.08-5.87,.38-9.23,.91-3.36,.53-6.51,1.51-9.45,2.95-2.94,1.44-5.42,3.4-7.41,5.9-2,2.5-3,5.71-3,9.64h0c0,3.25,.55,5.92,1.64,8.01,1.09,2.09,2.48,3.75,4.16,4.99,1.68,1.24,3.55,2.09,5.62,2.55,2.07,.46,4.12,.7,6.15,.7,4.21,0,7.6-.65,10.18-1.96,2.58-1.31,4.8-2.89,6.64-4.76,.28,2.23,1.23,3.78,2.85,4.65,1.62,.87,3.52,1.31,5.7,1.31,.68,0,1.34-.03,1.97-.1,.63-.07,1.17-.15,1.61-.26,.39-.09,.67-.42,.67-.83,0-.19-.06-.36-.17-.51Zm-13.02-14.31c0,.88-.38,1.81-1.13,2.76-.75,.96-1.77,1.84-3.06,2.65-1.29,.81-2.77,1.49-4.45,2.04-1.68,.55-3.45,.83-5.31,.83-3.51,0-5.9-.85-7.19-2.54-1.29-1.69-1.93-3.65-1.93-5.86,0-2.36,.61-4.26,1.82-5.69,1.22-1.44,2.79-2.56,4.72-3.37,1.93-.81,4.08-1.36,6.44-1.66,2.36-.29,4.68-.44,6.97-.44h3.11v11.27Z"/><path class="cls-3" d="M275.45,147.19c-.84-1.13-1.42-2.77-1.74-4.94-.35-2.34-.52-5.6-.52-9.76v-55.52c0-1.94-.22-3.51-.67-4.72-.45-1.2-1.05-2.15-1.83-2.85-.77-.7-1.65-1.16-2.63-1.4-.98-.23-1.95-.35-2.9-.35-.49,0-1.05,.01-1.67,.04-.63,.02-1.09,.06-1.41,.11v31.15c-1.18-1.12-3-2.27-5.45-3.43-2.45-1.16-5.57-1.74-9.38-1.74-2.87,0-5.65,.56-8.33,1.69-2.69,1.13-5.04,2.84-7.06,5.13-2.02,2.3-3.64,5.25-4.86,8.86-1.21,3.61-1.82,7.9-1.82,12.86,0,5.23,.62,9.61,1.86,13.14,1.24,3.53,2.91,6.35,5,8.48,2.09,2.12,4.48,3.64,7.16,4.55,2.68,.91,5.45,1.37,8.32,1.37,3.99,0,7.26-.79,9.83-2.36,2.57-1.57,4.39-3.1,5.46-4.58,.28,2.23,1.23,3.78,2.85,4.65,1.62,.87,3.52,1.31,5.7,1.31,.68,0,1.34-.03,1.97-.1,.63-.07,1.17-.15,1.61-.26,.39-.09,.67-.42,.67-.83,0-.19-.06-.36-.17-.51Zm-13.36-13.35c0,.88-.28,1.75-.85,2.63-.57,.88-1.38,1.64-2.44,2.3-1.06,.66-2.32,1.21-3.77,1.64-1.45,.44-3.02,.66-4.72,.66-2.55,0-4.69-.49-6.42-1.48-1.73-.99-3.13-2.37-4.19-4.16-1.06-1.79-1.8-3.89-2.23-6.3-.42-2.41-.64-5.04-.64-7.89,0-6.14,1.17-10.78,3.5-13.92,2.33-3.14,5.52-4.71,9.55-4.71,1.7,0,3.22,.2,4.56,.6,1.34,.4,2.53,.9,3.56,1.48,1.02,.59,1.87,1.21,2.55,1.86,.62,.61,1.13,1.12,1.54,1.54v25.75Z"/><path class="cls-3" d="M331.6,147.19c-.84-1.13-1.42-2.77-1.74-4.94-.35-2.34-.52-5.6-.52-9.76v-18.84c0-3.31-.33-6.23-.99-8.77-.66-2.54-1.81-4.65-3.45-6.35-1.64-1.69-3.78-2.96-6.43-3.81-2.65-.85-5.96-1.27-9.94-1.27-2.34,0-4.73,.2-7.15,.59-2.42,.39-4.63,.94-6.62,1.64-1.99,.7-3.61,1.51-4.86,2.4-1.25,.9-1.87,1.86-1.87,2.87,0,.67,.24,1.7,.73,3.08,.49,1.38,1.14,2.64,1.94,3.78,2.35-1.66,4.78-2.9,7.29-3.86,2.51-.95,5.59-1.49,9.23-1.49,4.39,0,7.36,.84,8.91,2.51,1.55,1.68,2.32,4.12,2.32,7.32v1.8c-.68-.07-1.47-.11-2.38-.11h-2.38c-2.79,.08-5.87,.38-9.23,.91-3.36,.53-6.51,1.51-9.45,2.95-2.94,1.44-5.42,3.4-7.42,5.9-2,2.5-3,5.71-3,9.64h0c0,3.25,.55,5.92,1.64,8.01,1.09,2.09,2.48,3.75,4.16,4.99,1.68,1.24,3.55,2.09,5.62,2.55,2.07,.46,4.12,.7,6.15,.7,4.21,0,7.6-.65,10.18-1.96,2.58-1.31,4.8-2.89,6.64-4.76,.28,2.23,1.23,3.78,2.85,4.65,1.62,.87,3.52,1.31,5.7,1.31,.68,0,1.34-.03,1.97-.1,.63-.07,1.17-.15,1.61-.26,.39-.09,.67-.42,.67-.83,0-.19-.06-.36-.17-.51Zm-13.02-14.31c0,.88-.38,1.81-1.13,2.76-.75,.96-1.77,1.84-3.06,2.65-1.29,.81-2.77,1.49-4.45,2.04-1.68,.55-3.45,.83-5.31,.83-3.51,0-5.9-.85-7.19-2.54-1.29-1.69-1.93-3.65-1.93-5.86,0-2.36,.61-4.26,1.82-5.69,1.22-1.44,2.79-2.56,4.72-3.37,1.93-.81,4.08-1.36,6.44-1.66,2.36-.29,4.68-.44,6.97-.44h3.11v11.27Z"/></g><g><path class="cls-1" d="M447.54,84.92c4.05,0,7.49-3.29,7.67-7.34,.18-4.05-2.97-7.34-7.01-7.34s-7.49,3.29-7.67,7.34c-.18,4.05,2.96,7.34,7.01,7.34Z"/><path class="cls-1" d="M534.94,138.03c-7.58,0-13-2.35-15.76-5.63,17.73-3.66,31.78-14.17,31.78-27.43,0-10.59-8.01-15.41-18.31-15.41-15.75,0-28.52,12.72-28.52,30.56,0,1.92,.19,4.22,.39,5.48-.53,0-1.8,.01-2.34,.01-9.23,0-16.47-1.72-23.04-4.02,21.08-25.25,32.04-43.52,32.04-59.44,0-8.68-4.44-14.04-13.17-14.04-14.62,0-25.78,19.94-35.44,65.82-.69,3.26-3.04,15.03-3.04,15.03-3.34,3.99-8.02,8.09-13.74,8.17-4.11,.06-6.9-2.24-6.9-7.79,0-8.28,4.55-20.82,7.39-30.29,1.33-4.43-7.94-7.01-9.71-2.56-1.27,3.2-2.42,6.52-3.63,9.4-8.86,21.16-19.14,31.67-29.45,31.67-5.74,0-8.88-4.51-8.62-14.3,19.69-15.65,36.23-40.54,36.02-60.9-.08-7.73-3.57-14.26-12.98-14.26-13.52,0-23.1,18.71-28.76,43.27-1.85,8-3.79,18.1-4.5,28.16-7.71,5.59-16.93,10.65-26.91,14.37v9.54c10.43-3.72,19.56-8.69,27.04-13.43,1.1,10.01,6.67,16.71,17.1,16.71,9.57,0,18.75-4.95,26.37-15.23,.39,8.6,5.85,14.83,15.65,14.79,5.43-.02,9.95-1.96,13.18-4.66-2.06,11.72-3.45,20.36-3.31,30.79,.19,14.3,5.6,21.24,15.1,21.24,13.34,0,20.33-12.76,20.37-32.18,.03-10.21-2.58-21.43-6.6-29.99,5.07,1.67,12.12,2.74,19.92,2.74,1.56,0,3.27-.04,4.73-.11,4.46,7.29,12.82,13.04,27.64,13.04,13.97,0,27.29-4.74,38.8-13.89v-11.76c-8.69,8.13-21.8,16.48-38.81,16.48Zm-116.99-81.29c1.97,0,3.05,1.41,3.05,5.51,0,8.83-7.17,31.04-24.76,48.21,6.17-36.92,16.09-53.71,21.71-53.71Zm79.93-.01c2.27,0,3.15,2.12,3.15,5.16,0,11.48-12.52,33.56-27.96,53.09,9.12-43.2,19.62-58.24,24.81-58.24Zm-28.07,127.03c-4.01,0-5.51-4.39-5.51-11.29,0-11.88,3.14-30.6,5.43-41.24l1.4-1.45c4.68,8.55,7.72,20.92,7.72,32.67,0,9.06-2.08,21.31-9.03,21.31Zm45.3-63.71c0-10.96,6.74-21.89,17.71-21.89,4.7,0,7.51,2.57,7.51,7.01,0,7.04-8.13,15.92-24.79,19.13-.23-1.24-.42-2.53-.42-4.25Z"/></g><g><polygon class="cls-2" points="621.52 .73 614.77 18.89 608.02 .73 603.97 .73 603.97 22.33 606.67 22.33 606.67 4.34 606.82 4.34 613.42 22.33 616.12 22.33 622.72 4.34 622.87 4.34 622.87 22.33 625.57 22.33 625.57 .73 621.52 .73"/><polygon class="cls-2" points="584.17 3.13 591.52 3.13 591.52 22.33 594.22 22.33 594.22 3.13 601.57 3.13 601.57 .73 584.17 .73 584.17 3.13"/></g></svg>