<?xml version="1.0" encoding="iso-8859-1"?>
<!-- Generator: Adobe Illustrator 19.0.0, SVG Export Plug-In . SVG Version: 6.00 Build 0)  -->
<svg version="1.1" id="Capa_1" xmlns="http://www.w3.org/2000/svg" xmlns:xlink="http://www.w3.org/1999/xlink" x="0px" y="0px"
	 viewBox="0 0 480 480" style="enable-background:new 0 0 480 480;" xml:space="preserve">
<g>
	<g>
		<path d="M456,112h-88V88c-0.035-30.913-25.087-55.965-56-56H168c-30.913,0.035-55.965,25.087-56,56v24H24
			c-13.255,0-24,10.745-24,24v160c0.042,10.134,6.445,19.15,16,22.528V424c0,13.255,10.745,24,24,24h400c13.255,0,24-10.745,24-24
			V318.528c9.555-3.378,15.958-12.394,16-22.528V136C480,122.745,469.255,112,456,112z M128,88c0.026-22.08,17.92-39.974,40-40h144
			c22.08,0.026,39.974,17.92,40,40v24h-16.32L336,88c-0.026-13.244-10.756-23.974-24-24H167.704c-13.244,0.026-23.974,10.756-24,24
			v0.08L143.92,112H128V88z M320,87.888L319.68,112H159.92l-0.248-24c0-4.418,3.582-8,8-8H312C316.375,80,319.939,83.513,320,87.888
			z M448,424c0,4.418-3.582,8-8,8H40c-4.418,0-8-3.582-8-8V320h56v24c0,4.418,3.582,8,8,8h32c4.418,0,8-3.582,8-8v-24h208v24
			c0,4.418,3.582,8,8,8h32c4.418,0,8-3.582,8-8v-24h56V424z M104,336v-40c-0.004-2.157,0.885-4.219,2.456-5.696
			c1.455-1.495,3.458-2.328,5.544-2.304c4.418,0,8,3.582,8,8v16v24H104z M360,336v-40c0-4.418,3.582-8,8-8
			c2.158-0.007,4.223,0.879,5.704,2.448c1.484,1.465,2.312,3.467,2.296,5.552v16v24H360z M464,296c0,4.418-3.582,8-8,8h-64v-8
			c-0.057-13.231-10.769-23.943-24-24c-13.255,0-24,10.745-24,24v8H136v-8c0-13.255-10.745-24-24-24
			c-13.224,0.074-23.926,10.776-24,24v8H24c-4.418,0-8-3.582-8-8V136c0-4.418,3.582-8,8-8h432c4.418,0,8,3.582,8,8V296z"/>
	</g>
</g>
<g>
</g>
<g>
</g>
<g>
</g>
<g>
</g>
<g>
</g>
<g>
</g>
<g>
</g>
<g>
</g>
<g>
</g>
<g>
</g>
<g>
</g>
<g>
</g>
<g>
</g>
<g>
</g>
<g>
</g>
</svg>
