<svg height="512" viewBox="0 0 60 60" width="512" xmlns="http://www.w3.org/2000/svg"><g id="Page-1" fill="none" fill-rule="evenodd"><g id="021---Spanner" fill="rgb(0,0,0)" fill-rule="nonzero" transform="translate(-1)"><path id="Shape" d="m9.919 55.1c1.0658423.0015946 2.0884684-.4212012 2.842-1.175.3789722-.3923789.3735524-1.0160848-.0121814-1.4018186s-1.0094397-.3911536-1.4018186-.0121814c-.7885711.7881829-2.06675048.7879732-2.85506283-.0004686-.78831235-.7884417-.78831235-2.0666211 0-2.8550628.78831235-.7884418 2.06649173-.7886515 2.85506283-.0004686.3923789.3789722 1.0160848.3735524 1.4018186-.0121814s.3911536-1.0094397.0121814-1.4018186c-1.2857816-1.2874669-3.27614634-1.5504639-4.8522003-.6411458-1.57605395.909318-2.34456396 2.7640718-1.87350814 4.5216018.47105583 1.75753 2.06414674 2.9793239 3.88370844 2.978544z"/><path id="Shape" d="m16.323 45.677c.2651948-.0000566.5195073-.1054506.707-.293l.711-.711c.3789722-.3923789.3735524-1.0160848-.0121814-1.4018186s-1.0094397-.3911536-1.4018186-.0121814l-.711.711c-.2859079.2859943-.3714219.7160366-.216678 1.0896546.1547439.3736179.5192821.6172591.923678.6173454z"/><path id="Shape" d="m19.88 42.12c.2651948-.0000566.5195073-.1054506.707-.293l13.519-13.519c.3789722-.3923789.3735524-1.0160848-.0121814-1.4018186s-1.0094397-.3911536-1.4018186-.0121814l-13.519 13.519c-.2859079.2859943-.3714219.7160366-.216678 1.0896546.1547439.3736179.5192821.6172591.923678.6173454z"/><path id="Shape" d="m1 51.158c-.06538006 2.322497.81174316 4.5726308 2.43169664 6.2381691 1.61995349 1.6655382 3.84488648 2.604751 6.16830336 2.6038309h.247c2.3718965-.0559963 4.6136228-1.0960732 6.188-2.871l26.5-29.674c4.6684348 1.5365497 9.8002818.526098 13.5377412-2.6655575 3.7374595-3.1916555 5.5389317-8.1020083 4.7522588-12.9534425-.118832-.7541997-.6521577-1.3772511-1.379-1.611-.713955-.2333249-1.4984585-.0436817-2.027.49l-7.8 7.8c-.2169564.2171681-.520903.3238806-.826.29l-5.133-.56c-.4736801-.0523557-.8476443-.4263199-.9-.9l-.56-5.134c-.0334184-.3047454.0732481-.6081932.29-.825l7.8-7.8c.5319983-.52948997.7213941-1.31297016.49-2.027-.2346973-.72663464-.8585432-1.25920487-1.613-1.377-4.8514342-.78667292-9.761787 1.01479932-12.9534425 4.75225876s-4.2021072 8.86930644-2.6655575 13.53774124l-29.675 26.499c-1.77551668 1.5737127-2.81633767 3.8151187-2.873 6.187zm4.2-4.7 30.182-26.941c.3100647-.2770091.4163738-.7169772.267-1.105-1.556275-4.0377874-.8303292-8.59984871 1.9023827-11.9551437s7.0534023-4.98962525 11.3226173-4.2828563l-7.8 7.8c-.6470329.6447565-.9650699 1.5491744-.864 2.457l.56 5.132c.1465672 1.40833 1.25967 2.5214328 2.668 2.668l5.132.56c.9079451.1021195 1.8128072-.2160738 2.457-.864l7.818-7.774c.6924888 4.2679387-.9502522 8.5803513-4.3067859 11.3058831-3.3565336 2.7255318-7.9143325 3.4480064-11.9492141 1.8941169-.3880228-.1493738-.8279909-.0430647-1.105.267l-26.945 30.173c-1.2107774 1.3542537-2.9254005 2.150709-4.74125247 2.2023473-1.815852.0516383-3.57296592-.6460895-4.85874753-1.9293473-1.28338258-1.285647-1.9812875-3.0426819-1.92983841-4.8585321s.84771983-3.5305501 2.20183841-4.7414679z"/></g></g></svg>