<?xml version="1.0" standalone="no"?>
<!DOCTYPE svg PUBLIC "-//W3C//DTD SVG 20010904//EN"
 "http://www.w3.org/TR/2001/REC-SVG-20010904/DTD/svg10.dtd">
<svg version="1.0" xmlns="http://www.w3.org/2000/svg"
 width="260.000000pt" height="260.000000pt" viewBox="0 0 260.000000 260.000000"
 preserveAspectRatio="xMidYMid meet">
<metadata>
Created by potrace 1.14, written by Peter Selinger 2001-2017
</metadata>
<g transform="translate(0.000000,260.000000) scale(0.100000,-0.100000)"
fill="#000000" stroke="none">
<path d="M1165 2530 c-2 -4 -18 -6 -35 -5 -16 1 -30 -1 -30 -5 0 -4 -10 -6
-21 -5 -12 1 -44 -5 -73 -13 -28 -7 -57 -14 -63 -15 -7 0 -13 -5 -13 -10 0 -6
-3 -8 -6 -4 -6 6 -70 -14 -124 -40 -19 -10 -38 -16 -42 -15 -5 1 -8 -2 -8 -8
0 -6 -3 -9 -7 -9 -20 3 -34 -2 -29 -10 3 -5 -1 -12 -10 -15 -9 -3 -12 -2 -9 4
8 14 -153 -98 -199 -137 -20 -16 -32 -33 -28 -37 4 -4 2 -6 -3 -4 -6 1 -26 -9
-44 -24 -18 -16 -30 -28 -27 -28 3 0 -11 -18 -32 -40 -50 -54 -64 -70 -58 -70
3 0 -6 -12 -19 -26 -14 -15 -25 -33 -25 -41 0 -8 -4 -11 -10 -8 -5 3 -10 -3
-10 -14 0 -12 -4 -21 -8 -21 -7 0 -30 -37 -37 -60 -1 -3 -13 -30 -28 -60 -14
-30 -27 -62 -29 -70 -2 -8 -5 -17 -8 -20 -9 -8 -38 -106 -42 -142 -1 -10 -5
-18 -8 -18 -3 0 -6 -8 -6 -17 -1 -10 -5 -45 -9 -78 -5 -33 -8 -77 -8 -97 0
-21 -3 -38 -7 -38 -3 0 -3 -30 1 -67 4 -36 6 -79 5 -95 -1 -15 1 -28 4 -28 3
0 6 -12 5 -27 -1 -16 7 -56 16 -90 10 -35 16 -63 14 -63 -2 0 3 -17 12 -38 8
-20 15 -39 15 -42 0 -5 14 -45 25 -70 3 -8 7 -17 8 -20 9 -29 60 -120 67 -120
6 0 8 -6 5 -14 -3 -8 1 -17 9 -20 8 -3 14 -12 14 -21 0 -8 5 -15 10 -15 6 0
10 -7 10 -15 0 -8 5 -15 11 -15 5 0 7 -4 4 -10 -3 -5 1 -10 9 -10 9 0 16 -4
16 -10 0 -10 10 -23 75 -98 53 -61 94 -101 135 -132 18 -14 41 -33 51 -43 11
-9 26 -17 34 -17 8 0 15 -4 15 -9 0 -7 177 -100 235 -123 55 -21 110 -36 117
-32 4 3 8 1 8 -4 0 -5 6 -9 13 -9 6 0 23 -3 37 -6 104 -21 156 -28 250 -30 47
-2 93 1 104 6 14 7 16 6 11 -4 -6 -8 -4 -10 5 -4 6 4 33 9 57 12 25 2 75 11
112 19 94 21 100 22 111 29 6 4 23 9 38 11 15 3 37 12 50 20 12 8 22 12 22 9
0 -3 13 1 30 10 16 8 31 14 33 13 2 -2 11 3 21 11 18 15 62 41 114 67 17 9 32
20 32 25 0 5 5 9 11 9 36 0 297 262 308 309 2 9 13 29 24 45 13 18 15 26 6 21
-7 -5 -2 4 14 20 15 15 27 36 27 46 0 9 5 19 10 21 6 2 12 13 13 26 0 12 5 22
9 22 4 0 8 7 8 15 0 8 5 15 11 15 6 0 9 7 5 15 -3 8 -1 15 5 15 5 0 9 6 8 13
-1 6 1 21 5 32 16 43 19 50 23 65 2 8 4 23 5 32 1 10 6 18 10 18 11 0 6 23 -7
32 -6 5 -4 8 5 8 11 0 15 11 15 40 0 22 2 40 5 40 7 0 9 45 9 180 0 110 0 112
-14 200 -5 30 -8 58 -7 63 1 4 -2 7 -7 7 -5 0 -8 11 -6 25 1 14 -2 28 -6 31
-5 3 -9 13 -9 22 0 10 -8 33 -19 52 -10 19 -17 43 -15 53 1 9 -2 17 -6 17 -9
0 -25 40 -22 53 1 4 -3 7 -9 7 -5 0 -7 5 -4 10 3 6 1 10 -4 10 -6 0 -11 9 -11
19 0 10 -7 22 -16 25 -8 3 -12 10 -9 16 3 5 3 10 -2 10 -4 0 -14 13 -21 28 -6
16 -21 38 -32 50 -12 12 -18 22 -14 22 4 0 -6 12 -22 28 -16 15 -31 32 -33 37
-7 19 -59 73 -65 68 -3 -4 -6 -1 -6 5 0 6 -11 22 -25 36 -14 14 -25 23 -25 20
0 -2 -16 10 -34 28 -52 49 -63 57 -70 51 -3 -4 -6 -2 -6 4 0 6 -21 24 -47 39
-27 15 -51 31 -54 36 -3 5 -13 10 -21 12 -9 1 -22 7 -30 13 -7 6 -20 13 -28
15 -8 2 -18 7 -21 11 -3 4 -16 9 -27 10 -12 1 -22 4 -22 8 0 4 -13 10 -30 14
-16 4 -30 11 -30 16 0 6 -5 7 -10 4 -6 -4 -18 -1 -27 7 -14 11 -16 11 -8 -2 7
-13 6 -13 -7 -2 -9 7 -27 15 -40 16 -13 2 -31 7 -40 11 -10 4 -36 8 -58 8 -22
1 -40 5 -40 8 0 8 -8 9 -173 12 -81 2 -150 0 -152 -3z"/>
</g>
</svg>
