<?xml version="1.0" standalone="no"?>
<!DOCTYPE svg PUBLIC "-//W3C//DTD SVG 20010904//EN"
 "http://www.w3.org/TR/2001/REC-SVG-20010904/DTD/svg10.dtd">
<svg version="1.0" xmlns="http://www.w3.org/2000/svg"
 width="200.000000pt" height="200.000000pt" viewBox="0 0 200.000000 200.000000"
 preserveAspectRatio="xMidYMid meet">
<metadata>
Created by potrace 1.14, written by Peter Selinger 2001-2017
</metadata>
<g transform="translate(0.000000,200.000000) scale(0.100000,-0.100000)"
fill="#000000" stroke="none">
<path d="M765 1869 c-142 -58 -239 -121 -280 -180 -46 -69 -78 -177 -78 -269
0 -119 12 -230 30 -265 10 -19 16 -64 18 -121 3 -103 5 -111 53 -214 85 -185
87 -210 20 -224 -17 -3 -73 -27 -122 -52 -82 -42 -122 -63 -236 -127 -58 -32
-115 -79 -143 -118 -26 -36 -27 -42 -27 -168 l0 -131 1000 0 1000 0 0 224 c0
167 -3 226 -12 234 -16 13 -67 41 -198 110 -58 30 -130 70 -160 87 -86 51
-176 93 -217 100 -25 4 -53 20 -80 46 -41 38 -43 42 -43 99 0 59 0 60 28 60
43 0 65 33 100 150 40 133 42 181 6 209 -14 11 -34 23 -43 26 -15 4 -18 17
-17 78 1 80 -26 197 -61 262 -40 73 -97 121 -182 154 -103 40 -121 44 -221 47
-68 3 -95 -1 -135 -17z"/>
</g>
</svg>
